<svg width="24" height="23" viewBox="0 0 24 23" fill="none" xmlns="http://www.w3.org/2000/svg">
<g filter="url(#filter0_d_176_480)">
<circle cx="12.0494" cy="7.60729" r="7.26818" fill="#00AC4E"/>
<path d="M12.3661 4.76318C10.6237 4.76318 9.20606 5.97186 9.20606 7.45757C9.20606 7.97698 9.37955 8.48004 9.7083 8.91493C9.64605 9.56727 9.4792 10.0516 9.23693 10.281C9.2049 10.3113 9.1969 10.3577 9.21712 10.396C9.23514 10.4303 9.2719 10.4513 9.3114 10.4513C9.31624 10.4513 9.3212 10.451 9.32615 10.4503C9.36881 10.4446 10.3598 10.3094 11.0765 9.91764C11.4836 10.0732 11.9172 10.1519 12.3661 10.1519C14.1086 10.1519 15.5262 8.94327 15.5262 7.45757C15.5262 5.97186 14.1086 4.76318 12.3661 4.76318Z" fill="white"/>
</g>
<defs>
<filter id="filter0_d_176_480" x="0.78125" y="0.339111" width="22.5361" height="22.5364" filterUnits="userSpaceOnUse" color-interpolation-filters="sRGB">
<feFlood flood-opacity="0" result="BackgroundImageFix"/>
<feColorMatrix in="SourceAlpha" type="matrix" values="0 0 0 0 0 0 0 0 0 0 0 0 0 0 0 0 0 0 127 0" result="hardAlpha"/>
<feOffset dy="4"/>
<feGaussianBlur stdDeviation="2"/>
<feComposite in2="hardAlpha" operator="out"/>
<feColorMatrix type="matrix" values="0 0 0 0 0 0 0 0 0 0 0 0 0 0 0 0 0 0 0.25 0"/>
<feBlend mode="normal" in2="BackgroundImageFix" result="effect1_dropShadow_176_480"/>
<feBlend mode="normal" in="SourceGraphic" in2="effect1_dropShadow_176_480" result="shape"/>
</filter>
</defs>
</svg>
