<svg width="12" height="13" viewBox="0 0 12 13" fill="none" xmlns="http://www.w3.org/2000/svg">
<g id="Icon/Outline/plus">
<path id="Mask" fill-rule="evenodd" clip-rule="evenodd" d="M7.96583 7.9744L6.47572 6.47593L7.97419 4.98581C8.1123 4.84847 8.11268 4.62557 7.97559 4.48771C7.8385 4.34985 7.6156 4.34898 7.47749 4.48632L5.97901 5.97643L4.4889 4.47796C4.35181 4.3401 4.12891 4.33922 3.9908 4.47656C3.85269 4.6139 3.85232 4.8368 3.98941 4.97466L5.47952 6.47314L3.98104 7.96325C3.84293 8.10059 3.84256 8.32349 3.97965 8.46135C4.11674 8.59921 4.33964 8.60008 4.47775 8.46274L5.97622 6.97263L7.46634 8.47111C7.60343 8.60897 7.82632 8.60984 7.96443 8.4725C8.10254 8.33516 8.10292 8.11226 7.96583 7.9744Z" fill="black"/>
<mask id="mask0_82_36" style="mask-type:alpha" maskUnits="userSpaceOnUse" x="3" y="4" width="6" height="5">
<path id="Mask_2" fill-rule="evenodd" clip-rule="evenodd" d="M7.96583 7.9744L6.47572 6.47593L7.97419 4.98581C8.1123 4.84847 8.11268 4.62557 7.97559 4.48771C7.8385 4.34985 7.6156 4.34898 7.47749 4.48632L5.97901 5.97643L4.4889 4.47796C4.35181 4.3401 4.12891 4.33922 3.9908 4.47656C3.85269 4.6139 3.85232 4.8368 3.98941 4.97466L5.47952 6.47314L3.98104 7.96325C3.84293 8.10059 3.84256 8.32349 3.97965 8.46135C4.11674 8.59921 4.33964 8.60008 4.47775 8.46274L5.97622 6.97263L7.46634 8.47111C7.60343 8.60897 7.82632 8.60984 7.96443 8.4725C8.10254 8.33516 8.10292 8.11226 7.96583 7.9744Z" fill="white"/>
</mask>
<g mask="url(#mask0_82_36)">
<g id="&#240;&#159;&#142;&#168; Color">
<rect id="Base" x="5.99414" y="0.497559" width="8.45304" height="8.45304" transform="rotate(45.1603 5.99414 0.497559)" fill="#C6C6C6"/>
</g>
</g>
</g>
</svg>
